<svg xmlns="http://www.w3.org/2000/svg" width="31" height="8" fill="none" viewBox="0 0 31 8"><path fill="#fff" d="M0 0h.47v.47H0zm.47 0h.471v.47h-.47zm.471 0h.47v.47h-.47zM0 .94h.47v.472H0zm0-.47h.47v.47H0zM.94 6.588h.47v.47h-.47zm-.47 0h.47v.47h-.47zM0 6.118h.47v.47H0zm0-.471h.47v.47H0zm0 .941h.47v.47H0zM2.353 0h.47v.47h-.47zm-.941 0h.47v.47h-.47zm1.411 0h.471v.47h-.47zm.471 0h.47v.47h-.47zm.47 0h.471v.47h-.47zm.471 0h.47v.47h-.47zm.47.47h.471v.47h-.47zm-.47 0h.47v.47h-.47zm0 .47h.47v.472h-.47zm.941-.47h.47v.47h-.47zm0 .47h.47v.472h-.47zm-.47 0h.47v.472h-.47zm-.47.472h.47v.47h-.47zm-.471 0h.47v.47h-.47zm.94 0h.471v.47h-.47zm.471 0h.47v.47h-.47zm.47 0h.472v.47h-.471zm0 .47h.472v.47h-.471zm0 .47h.472v.471h-.471zm0 .471h.472v.47h-.471zm0 .47h.472v.471h-.471zm0 .471h.472v.471h-.471zm0 .471h.472v.47h-.471zm0 .47h.472v.471h-.471zm0 .471h.472v.47h-.471zm-.47 0h.47v.47h-.47zm0 .47h.47v.471h-.47zm0 .471h.47v.471h-.47zm-.47 0h.47v.471h-.47zm-.47 0h.47v.471h-.47zm0-.94h.47v.47h-.47zm0 .47h.47v.47h-.47zm.47 0h.47v.47h-.47zm0-.47h.47v.47h-.47zm0-.471h.47v.47h-.47zm-.47 0h.47v.47h-.47zm0-.47h.47v.47h-.47zm0-.472h.47v.471h-.47zm0-.47h.47v.47h-.47zm0-.47h.47v.47h-.47zm0-.471h.47v.47h-.47zm0-.47h.47v.47h-.47zm.47 0h.47v.47h-.47zm0 .47h.47v.47h-.47zm0 .47h.47v.47h-.47zm0 .47h.47v.471h-.47zm0 .471h.47v.471h-.47zm0 .471h.47v.47h-.47zm.47.47h.47v.471h-.47zm0-.47h.47v.47h-.47zm0-.47h.47v.47h-.47zm0-.471h.47v.47h-.47zm0-.47h.47v.47h-.47zm0-.471h.47v.47h-.47zm0-.47h.47v.47h-.47zm-.94 4.705h.47v.47h-.47zm-2.824 0h.47v.47h-.47zm0-.47h.47v.47h-.47zm-.47 0h.47v.47h-.47zm-.472 0h.471v.47h-.47zm0-3.765h.471v.47h-.47zm0-.47h.471v.47h-.47zM0 1.411h.47v.47H0zM.47.94h.471v.47h-.47zM.941.47h.47v.47h-.47zm.47 0h.471v.47h-.47zm.471 0h.47v.47h-.47zm0 .47h.47v.47h-.47zm0 .47h.47v.471h-.47zm-.47 0h.47v.471h-.47zm-.47 0h.47v.471h-.47zm.47.471h.47v.47h-.47zm0 .47h.47v.471h-.47zm0 .471h.47v.47h-.47zm0 2.824h.47v.47h-.47zm-.47 0h.47v.47h-.47zm0-3.294h.47v.47h-.47zm0-.47h.47v.47h-.47zm0-.942h.47v.47h-.47zm.47 0h.47v.47h-.47zm.94-.47h.471v.47h-.47zm.471 0h.471v.47h-.47zm.471 0h.47v.47h-.47zm.47 0h.471v.47h-.47zm0 .47h.471v.47h-.47zm-.47 0h.47v.47h-.47zm-.47 0h.47v.47h-.47zm-.471 0h.47v.47h-.47zM.47.47h.471v.47h-.47zm0 5.176h.471v.47h-.47zm0-4.235h.471v.47h-.47zm-.47.47h.47v.47H0zm0 .47h.47v.471H0zm0 2.824h.47v.47H0zm.47 0h.471v.47h-.47zm.471 0h.47v.47h-.47zm.47 0h.471v.47h-.47zm-.47-2.353h.47v.47h-.47zm-.47 0h.47v.47h-.47zm-.471 0h.47v.47H0zm0 .47h.47v.471H0zm0 .471h.47v.471H0zm0 .471h.47v.47H0zm.47 0h.471v.47h-.47zm0 .47h.471v.471h-.47zm.471 0h.47v.471h-.47zm-.941 0h.47v.471H0zm1.412 0h.47v.471h-.47zm0-.47h.47v.47h-.47zm0-.47h.47v.47h-.47zm0-.471h.47v.47h-.47zm-.47 0h.47v.47h-.47zm-.472 0h.471v.47h-.47zm0 .47h.471v.471h-.47zm.471.471h.47v.47h-.47zm0-.47h.47v.47h-.47zm3.765 2.823h.47v.47h-.47zm.47 0h.47v.47h-.47zm.47 0h.472v.47h-.471zm0-.47h.472v.47h-.471zm0-.471h.472v.47h-.471zM9.414 0h.471v.47h-.47zm.471 0h.47v.47h-.47zm-.941 0h.47v.47h-.47zm1.412 0h.47v.47h-.47zm.47 0h.47v.47h-.47zm.47 0h.471v.47h-.47zm.471 0h.471v.47h-.47zm.471.47h.47v.47h-.47zm-.47 0h.47v.47h-.47zm0 .47h.47v.472h-.47zm.94-.47h.471v.47h-.47zm0 .47h.471v.472h-.47zm-.47 0h.47v.472h-.47zm-.47.472h.47v.47h-.47zm-.471 0h.47v.47h-.47zm.941 0h.47v.47h-.47zm.47 0h.471v.47h-.47zm.471 0h.47v.47h-.47zm0 .47h.47v.47h-.47zm0 2.824h.47v.47h-.47zm0 .47h.47v.47h-.47zm-.47 0h.47v.47h-.47zm0 .47h.47v.471h-.47zm0 .471h.47v.471h-.47zm-.471 0h.47v.471h-.47zm-.47 0h.47v.471h-.47zm-.471-.47h.47v.47h-.47zm0-.47h.47v.47h-.47zm.47 0h.471v.47h-.47zm0 .47h.471v.47h-.47zm.471 0h.47v.47h-.47zm0-.47h.47v.47h-.47zm0-.471h.47v.47h-.47zm-.47 0h.47v.47h-.47zm0-2.824h.47v.47h-.47zm.47 0h.47v.47h-.47zm.47 2.824h.471v.47h-.47zm0-2.824h.471v.47h-.47zm-1.411 4.235h.47v.471h-.47zm0 .471h.47v.47h-.47zm.47 0h.471v.47h-.47zm-.94 0h.47v.47h-.47zm-.471 0h.47v.47h-.47zm-.47 0h.47v.47h-.47zm-.472 0h.471v.47h-.47zm-.47 0h.47v.47h-.47zm0-.47h.47v.47h-.47zm-.47 0h.47v.47h-.47zm-.471 0h.47v.47h-.47zm0-.471h.47v.47h-.47zm-.47-.47h.47v.47h-.47zm.47 0h.47v.47h-.47zm-.47-.471h.47v.47h-.47zm0-.47h.47v.47h-.47zm0-.472h.47v.471h-.47zm0-.47h.47v.47h-.47zm0-.47h.47v.47h-.47zm0-.471h.47v.47h-.47zm.47 0h.47v.47h-.47zm0-.47h.47v.47h-.47zm-.47 0h.47v.47h-.47zm0-.471h.47v.47h-.47zm.47 0h.47v.47h-.47zm0-.471h.47v.47h-.47zm0-.47h.47v.47h-.47zm.47 0h.47v.47h-.47zm.47 0h.471v.47h-.47zm.471 0h.471v.47h-.47zm0 .47h.471v.47h-.47zm0 .47h.471v.471h-.47zm-.47 0h.47v.471h-.47zm-.47 0h.47v.471h-.47zm.47.471h.47v.47h-.47zm0 .47h.47v.471h-.47zm0 .471h.47v.47h-.47zm0 .47h.47v.471h-.47zm0 .471h.47v.471h-.47zm0 .471h.47v.47h-.47zm0 .47h.47v.471h-.47zm0 .471h.47v.47h-.47zm.47 0h.471v.47h-.47zm0 .47h.471v.471h-.47zm.471 0h.47v.471h-.47zm.47 0h.471v.471h-.47zm.471 0h.47v.471h-.47zm0 .471h.47v.471h-.47zm-.47 0h.47v.471h-.47zm-.47 0h.47v.471h-.47zm-.472 0h.471v.471h-.47zm-.47-.47h.47v.47h-.47zm-.47 0h.47v.47h-.47zm0-.47h.47v.47h-.47zm0-.471h.47v.47h-.47zm0-.47h.47v.47h-.47zm-.471 0h.47v.47h-.47zm0 .47h.47v.47h-.47zm0-.942h.47v.471h-.47zm0-.47h.47v.47h-.47zm0-.47h.47v.47h-.47zm.47 0h.47v.47h-.47zm0 .47h.47v.47h-.47zm0 .47h.47v.471h-.47zm0-1.411h.47v.47h-.47zm0-.47h.47v.47h-.47zm0-.942h.47v.47h-.47zm.47 0h.471v.47h-.47zm.942-.47h.47v.47h-.47zm.47 0h.471v.47h-.47zm.471 0h.47v.47h-.47zm.47 0h.471v.47h-.47zm0 .47h.471v.47h-.47zm-.47 0h.47v.47h-.47zm-.47 0h.47v.47h-.47zm-.47 0h.47v.47h-.47zm3.293 1.412h.47v.47h-.47zm-.47 0h.47v.47h-.47zm-.471 0h.47v.47h-.47zm-.47 0h.47v.47h-.47zm1.411.47h.47v.47h-.47zm-.47 0h.47v.47h-.47zm-.471 0h.47v.47h-.47zm-.47 0h.47v.47h-.47zm-.471 0h.47v.47h-.47zm-.47 0h.47v.47h-.47zm-.471 0h.47v.47h-.47zm-.47 0h.47v.47h-.47zm-.472 0h.471v.47h-.47zm0 .47h.471v.471h-.47zm.471 0h.47v.471h-.47zm.47 0h.471v.471h-.47zm.471 0h.47v.471h-.47zm.47 0h.471v.471h-.47zm.471 0h.471v.471h-.47zm.471 0h.47v.471h-.47zm.47 0h.471v.471h-.47zm.471 0h.47v.471h-.47zM14.594 0h.47v.47h-.47zm.47 0h.47v.47h-.47zm.47 0h.471v.47h-.47zm-.94.94h.47v.472h-.47zm0-.47h.47v.47h-.47zm.94 6.118h.471v.47h-.47zm-.47 0h.47v.47h-.47zm-.47-.47h.47v.47h-.47zm0-.471h.47v.47h-.47zm0 .941h.47v.47h-.47zM16.947 0h.47v.47h-.47zm-.942 0h.471v.47h-.47zm1.883 0h.47v.47h-.47zm.47.47h.47v.47h-.47zm-.47 0h.47v.47h-.47zm0 .47h.47v.472h-.47zm.94 0h.471v.472h-.47zm-.47 0h.47v.472h-.47zm-.47.472h.47v.47h-.47zm-.47 0h.47v.47h-.47zm.94 0h.47v.47h-.47zm.47 0h.471v.47h-.47zm.471.47h.471v.47h-.47zm0 .47h.471v.471h-.47zm0 .471h.471v.47h-.47zm0 .47h.471v.471h-.47zm0 .471h.471v.471h-.47zm0 .471h.471v.47h-.47zm0 .47h.471v.471h-.47zm0 .471h.471v.47h-.47zm-.47 0h.47v.47h-.47zm0 .47h.47v.471h-.47zm0 .471h.47v.471h-.47zm-.47 0h.47v.471h-.47zm-.471 0h.47v.471h-.47zm0-.94h.47v.47h-.47zm0 .47h.47v.47h-.47zm.47 0h.47v.47h-.47zm0-.47h.47v.47h-.47zm0-.471h.47v.47h-.47zm-.47 0h.47v.47h-.47zm0-.47h.47v.47h-.47zm0-.472h.47v.471h-.47zm0-.47h.47v.47h-.47zm0-.47h.47v.47h-.47zm0-.471h.47v.47h-.47zm0-.47h.47v.47h-.47zm.47 0h.47v.47h-.47zm0 .47h.47v.47h-.47zm0 .47h.47v.47h-.47zm0 .47h.47v.471h-.47zm0 .471h.47v.471h-.47zm0 .471h.47v.47h-.47zm.47.47h.471v.471h-.47zm0-.47h.471v.47h-.47zm0-.47h.471v.47h-.47zm0-.471h.471v.47h-.47zm0-.47h.471v.47h-.47zm0-.471h.471v.47h-.47zm0-.47h.471v.47h-.47zm-.94 4.705h.47v.47h-.47zm-1.883 0h.471v.47h-.47zm0-.47h.471v.47h-.47zm-.47 0h.47v.47h-.47zm-.47 0h.47v.47h-.47zm0-3.765h.47v.47h-.47zm0-.47h.47v.47h-.47zm-.471-.471h.47v.47h-.47zm.47-.471h.47v.47h-.47zm.47-.47h.471v.47h-.47zm.471 0h.471v.47h-.47zm.471 0h.47v.47h-.47zm0 .47h.47v.47h-.47zm0 .47h.47v.471h-.47zm-.47 0h.47v.471h-.47zm-.471 0h.47v.471h-.47zm.47.471h.471v.47h-.47zm0 .47h.471v.471h-.47zm0 .471h.471v.47h-.47zm0 2.824h.471v.47h-.47zm-.47 0h.47v.47h-.47zm0-3.294h.47v.47h-.47zm0-.47h.47v.47h-.47zm0-.942h.47v.47h-.47zm.47 0h.471v.47h-.47zm.942-.47h.47v.47h-.47zm.47 0h.47v.47h-.47zm0 .47h.47v.47h-.47zm-.47 0h.47v.47h-.47zM15.064.47h.47v.47h-.47zm0 5.176h.47v.47h-.47zm0-4.235h.47v.47h-.47zm-.47.47h.47v.47h-.47zm0 .47h.47v.471h-.47zm0 2.824h.47v.47h-.47zm.47 0h.47v.47h-.47zm.47 0h.471v.47h-.47zm.471 0h.471v.47h-.47zm-.47-2.353h.47v.47h-.47zm-.47 0h.47v.47h-.47zm-.471 0h.47v.47h-.47zm0 .47h.47v.471h-.47zm0 .471h.47v.471h-.47zm0 .471h.47v.47h-.47zm.47 0h.47v.47h-.47zm0 .47h.47v.471h-.47zm.47 0h.471v.471h-.47zm-.94 0h.47v.471h-.47zm1.411 0h.471v.471h-.47zm0-.47h.471v.47h-.47zm0-.47h.471v.47h-.47zm0-.471h.471v.47h-.47zm-.47 0h.47v.47h-.47zm-.47 0h.47v.47h-.47zm0 .47h.47v.471h-.47zm.47.471h.47v.47h-.47zm0-.47h.47v.47h-.47zm2.823 2.823h.47v.47h-.47zm.47 0h.471v.47h-.47zm.471 0h.471v.47h-.47zm0-.47h.471v.47h-.47zm0-.471h.471v.47h-.47zM19.77 0h.47v.47h-.47zm.47 0h.471v.47h-.47zm.471 0h.47v.47h-.47zm.47 0h.471v.47h-.47zm.471.47h.471v.47h-.47zm-.47 0h.47v.47h-.47zm0 .47h.47v.472h-.47zm.941-.47h.47v.47h-.47zm0 .47h.47v.472h-.47zm-.47 0h.47v.472h-.47zm-.471.472h.47v.47h-.47zm-.47 0h.47v.47h-.47zm.94 0h.471v.47h-.47zm.471 0h.47v.47h-.47zm.47 0h.471v.47h-.47zm0 .47h.471v.47h-.47zm0 .47h.471v.471h-.47zm0 .471h.471v.47h-.47zm0 .47h.471v.471h-.47zm0 .471h.471v.471h-.47zm0 .471h.471v.47h-.47zm0 .47h.471v.471h-.47zm0 .471h.471v.47h-.47zm-.47 0h.47v.47h-.47zm0 .47h.47v.471h-.47zm0 .471h.47v.471h-.47zm-.47 0h.47v.471h-.47zm-.471 0h.47v.471h-.47zm0-.94h.47v.47h-.47zm0 .47h.47v.47h-.47zm.47 0h.471v.47h-.47zm0-.47h.471v.47h-.47zm0-.471h.471v.47h-.47zm-.47 0h.47v.47h-.47zm0-.47h.47v.47h-.47zm0-.472h.47v.471h-.47zm0-.47h.47v.47h-.47zm0-.47h.47v.47h-.47zm0-.471h.47v.47h-.47zm0-.47h.47v.47h-.47zm.47 0h.471v.47h-.47zm0 .47h.471v.47h-.47zm0 .47h.471v.47h-.47zm0 .47h.471v.471h-.47zm0 .471h.471v.471h-.47zm0 .471h.471v.47h-.47zm.471.47h.47v.471h-.47zm0-.47h.47v.47h-.47zm0-.47h.47v.47h-.47zm0-.471h.47v.47h-.47zm0-.47h.47v.47h-.47zm0-.471h.47v.47h-.47zm0-.47h.47v.47h-.47zm-.941 4.705h.47v.47h-.47zM19.299.47h.471v.47h-.47zm0 .47h.471v.472h-.47zm0 .472h.471v.47h-.47zM19.77.47h.47v.47h-.47zm.47 0h.471v.47h-.47zm.471 0h.47v.47h-.47zm0 .47h.47v.472h-.47zm-.47 0h.47v.472h-.47zm-.47 0h.47v.472h-.47zm1.881 5.648h.471v.47h-.47zm.471 0h.47v.47h-.47zm.47 0h.471v.47h-.47zm0-.47h.471v.47h-.47zm0-.471h.471v.47h-.47zM17.418 0h.47v.47h-.47zm2.353 1.412h.47v.47h-.47zM26.351 0h.47v.47h-.47zm.47 0h.471v.47h-.47zm-.94 0h.47v.47h-.47zm1.411 0h.47v.47h-.47zm.47 0h.471v.47h-.47zm.471 0h.47v.47h-.47zm.47 0h.471v.47h-.47zm.471.47h.471v.47h-.47zm-.47 0h.47v.47h-.47zm0 .47h.47v.472h-.47zm.941-.47h.47v.47h-.47zm0 .47h.47v.472h-.47zm-.47 0h.47v.472h-.47zm-.471.472h.47v.47h-.47zm-.47 0h.47v.47h-.47zm.94 0h.471v.47h-.47zm.471 0h.47v.47h-.47zm.47 0h.471v.47h-.47zm0 .47h.471v.47h-.47zm0 .47h.471v.471h-.47zm0 .471h.471v.47h-.47zm0 .47h.471v.471h-.47zm0 .471h.471v.471h-.47zm0 .471h.471v.47h-.47zm0 .47h.471v.471h-.47zm0 .471h.471v.47h-.47zm-.47 0h.47v.47h-.47zm0 .47h.47v.471h-.47zm0 .471h.47v.471h-.47zm-.47 0h.47v.471h-.47zm-.471 0h.47v.471h-.47zm-.47-.47h.47v.47h-.47zm0-.47h.47v.47h-.47zm.47 0h.47v.47h-.47zm0 .47h.47v.47h-.47zm.47 0h.471v.47h-.47zm0-.47h.471v.47h-.47zm0-.471h.471v.47h-.47zm-.47 0h.47v.47h-.47zm0-.47h.47v.47h-.47zm0-.472h.47v.471h-.47zm0-.47h.47v.47h-.47zm0-.47h.47v.47h-.47zm0-.471h.47v.47h-.47zm0-.47h.47v.47h-.47zm.47 0h.471v.47h-.47zm0 .47h.471v.47h-.47zm0 .47h.471v.47h-.47zm0 .47h.471v.471h-.47zm0 .471h.471v.471h-.47zm0 .471h.471v.47h-.47zm.471.47h.47v.471h-.47zm0-.47h.47v.47h-.47zm0-.47h.47v.47h-.47zm0-.471h.47v.47h-.47zm0-.47h.47v.47h-.47zm0-.471h.47v.47h-.47zm0-.47h.47v.47h-.47zm-1.412 4.234h.47v.471h-.47zm0 .471h.47v.47h-.47zm.47 0h.471v.47h-.47zm-.94 0h.47v.47h-.47zm-.47 0h.47v.47h-.47zm-.471 0h.47v.47h-.47zm-.471 0h.47v.47h-.47zm-.47 0h.47v.47h-.47zm0-.47h.47v.47h-.47zm-.471 0h.47v.47h-.47zm-.47 0h.47v.47h-.47zm0-.471h.47v.47h-.47zm-.471-.47h.47v.47h-.47zm.47 0h.47v.47h-.47zm-.47-.471h.47v.47h-.47zm0-.47h.47v.47h-.47zm0-.472h.47v.471h-.47zm0-.47h.47v.47h-.47zm0-.47h.47v.47h-.47zm0-.471h.47v.47h-.47zm.47 0h.47v.47h-.47zm0-.47h.47v.47h-.47zm-.47 0h.47v.47h-.47zm0-.471h.47v.47h-.47zm.47 0h.47v.47h-.47zm0-.471h.47v.47h-.47zm0-.47h.47v.47h-.47zm.47 0h.471v.47h-.47zm.471 0h.471v.47h-.47zm.471 0h.47v.47h-.47zm0 .47h.47v.47h-.47zm0 .47h.47v.471h-.47zm-.47 0h.47v.471h-.47zm-.471 0h.47v.471h-.47zm.47.471h.471v.47h-.47zm0 .47h.471v.471h-.47zm0 .471h.471v.47h-.47zm0 .47h.471v.471h-.47zm0 .471h.471v.471h-.47zm0 .471h.471v.47h-.47zm0 .47h.471v.471h-.47zm0 .471h.471v.47h-.47zm.471 0h.47v.47h-.47zm0 .47h.47v.471h-.47zm.47 0h.471v.471h-.47zm.471 0h.47v.471h-.47zm.47 0h.471v.471h-.47zm0 .471h.471v.471h-.47zm-.47 0h.47v.471h-.47zm-.47 0h.47v.471h-.47zm-.471 0h.47v.471h-.47zm-.47-.47h.47v.47h-.47zm-.471 0h.47v.47h-.47zm0-.47h.47v.47h-.47zm0-.471h.47v.47h-.47zm0-.47h.47v.47h-.47zm-.47 0h.47v.47h-.47zm0 .47h.47v.47h-.47zm0-.942h.47v.471h-.47zm0-.47h.47v.47h-.47zm0-.47h.47v.47h-.47zm.47 0h.47v.47h-.47zm0 .47h.47v.47h-.47zm0 .47h.47v.471h-.47zm0-1.411h.47v.47h-.47zm0-.47h.47v.47h-.47zm0-.942h.47v.47h-.47zm.47 0h.471v.47h-.47zm.942-.47h.47v.47h-.47zm.47 0h.47v.47h-.47zm.47 0h.471v.47h-.47zm.471 0h.47v.47h-.47zm0 .47h.47v.47h-.47zm-.47 0h.47v.47h-.47zm-.47 0h.47v.47h-.47zm-.471 0h.47v.47h-.47z"/></svg>